<svg version="1.0" xmlns="http://www.w3.org/2000/svg" preserveAspectRatio="xMidYMid meet" viewBox="72.72 63.02 150.47 155.98">  <g transform="translate(0.000000,300.000000) scale(0.100000,-0.100000)" fill="#2675a2" stroke="none"> <path d="M1434 2351 c-21 -13 -38 -36 -50 -66 -21 -56 -25 -168 -6 -186 6 -7 12 -26 12 -41 0 -23 -9 -33 -52 -57 -88 -49 -158 -104 -162 -125 -3 -12 -10 -55 -16 -96 -6 -41 -16 -100 -21 -130 -7 -44 -6 -68 7 -110 9 -30 20 -59 25 -65 5 -5 9 -12 9 -16 0 -8 -56 -20 -85 -19 -262 14 -300 -4 -349 -161 -22 -74 -23 -86 -11 -115 11 -26 22 -35 57 -44 24 -6 63 -18 87 -25 25 -8 52 -15 62 -15 32 0 30 -18 -11 -101 -40 -78 -41 -81 -18 -75 71 20 392 66 397 58 8 -14 203 -152 213 -152 8 0 67 41 178 121 l44 33 161 -27 c88 -15 170 -30 183 -33 23 -6 22 -3 -17 74 -23 45 -41 85 -41 90 0 4 41 17 90 27 50 11 97 26 105 35 13 14 9 32 -28 146 -23 71 -49 134 -57 141 -22 17 -117 28 -133 14 -9 -7 -17 -7 -24 0 -9 9 -72 15 -190 18 -18 1 -33 5 -33 10 0 5 15 13 33 16 66 15 81 47 62 136 -7 35 -22 92 -34 126 -12 34 -21 75 -21 91 0 44 -40 94 -101 127 -83 44 -91 53 -83 89 3 17 11 37 18 45 16 21 12 159 -7 203 -30 71 -126 100 -193 59z m128 -23 c38 -19 66 -127 31 -121 -7 2 -30 7 -51 11 -28 7 -51 5 -82 -5 -47 -16 -63 -10 -34 12 14 12 36 15 79 12 50 -3 56 -2 32 6 -17 7 -30 21 -33 37 -3 14 -9 32 -14 41 -5 9 -6 19 -3 23 7 6 49 -2 75 -16z m-92 -43 c0 -21 -17 -35 -41 -35 -14 0 -11 19 9 45 20 27 32 23 32 -10z m70 -84 c0 -6 -4 -13 -10 -16 -5 -3 -10 -13 -10 -21 0 -11 9 -14 33 -12 17 2 31 8 30 13 -2 9 36 29 43 22 6 -5 -20 -82 -29 -88 -5 -3 -10 -34 -11 -68 -2 -49 -8 -67 -25 -84 -17 -18 -23 -19 -30 -8 -6 9 -11 10 -15 2 -12 -18 -36 -12 -36 9 0 13 7 20 19 20 25 0 51 10 51 20 0 5 -8 6 -19 3 -19 -5 -41 29 -22 35 6 2 1 13 -10 25 l-20 22 26 8 c28 10 35 28 7 20 -16 -4 -18 1 -14 32 3 25 -1 42 -13 55 -18 20 -17 20 18 20 21 0 37 -4 37 -9z m-120 -47 c0 -7 -4 -16 -10 -19 -5 -3 -10 3 -10 14 0 11 -5 23 -10 26 -6 4 -7 11 -4 17 8 12 34 -18 34 -38z m50 -9 c13 -16 6 -35 -15 -35 -18 0 -26 15 -19 34 8 20 18 20 34 1z m-15 -96 c4 -11 4 -42 0 -68 -6 -43 -4 -51 16 -70 32 -29 68 -26 112 10 l37 31 52 -30 c64 -36 84 -63 93 -125 l6 -47 -53 6 c-52 6 -54 6 -91 -35 l-38 -41 -106 0 c-96 0 -109 2 -130 22 -20 19 -34 22 -90 20 l-66 -2 6 65 c4 36 10 72 14 79 11 19 88 76 136 100 41 21 77 63 77 90 0 23 17 20 25 -5z m231 -334 c-5 -13 -2 -14 15 -4 15 8 24 8 32 0 6 -6 23 -11 38 -11 15 0 31 -4 34 -10 11 -18 34 -142 28 -156 -10 -27 -139 -67 -131 -41 3 6 22 14 44 17 l39 5 -30 12 c-91 35 -133 40 -78 8 l28 -16 -33 4 c-22 2 -29 0 -22 -7 5 -5 10 -13 10 -17 0 -10 -127 33 -166 55 -28 16 -28 17 -4 12 64 -12 155 -17 139 -7 -9 6 -65 15 -123 20 -59 5 -113 15 -121 21 -8 7 -20 10 -27 8 -7 -3 4 -13 24 -24 20 -10 68 -36 107 -57 39 -20 71 -41 71 -46 0 -19 -134 -28 -160 -11 -11 7 -2 10 32 10 26 0 50 5 53 10 5 7 -35 10 -122 8 -101 -2 -131 -6 -140 -18 -17 -22 -30 -4 -47 60 -16 62 -11 117 13 129 28 14 110 21 136 11 18 -7 24 -16 22 -32 -2 -19 2 -22 23 -20 14 2 75 7 135 12 61 4 127 11 148 15 47 10 63 30 18 23 -36 -5 -36 -5 -15 27 18 27 40 34 30 10z m-47 -261 c3 -3 -3 -12 -12 -21 -16 -16 -18 -16 -33 -1 -21 21 -9 41 19 32 12 -3 24 -8 26 -10z m-307 -51 c19 -17 23 -72 10 -148 -10 -55 -50 -75 -151 -75 -110 0 -126 23 -102 150 14 71 44 90 143 90 62 0 86 -4 100 -17z m263 -100 l32 -113 -48 0 c-46 0 -49 2 -49 26 0 23 -3 25 -32 22 -25 -2 -34 -8 -36 -25 -3 -20 -9 -23 -49 -23 -42 0 -45 2 -39 23 3 12 16 64 28 115 l23 93 69 -3 69 -3 32 -112z m254 91 c11 -10 22 -29 26 -41 6 -22 3 -23 -39 -23 -40 0 -46 3 -46 21 0 17 -5 20 -37 17 -41 -3 -41 -2 -27 -85 4 -30 8 -33 39 -33 31 0 35 3 35 26 0 20 4 25 16 20 9 -3 29 -6 45 -6 27 0 29 -2 29 -40 0 -60 -26 -73 -126 -64 -103 9 -119 24 -129 123 -6 63 -5 75 11 93 17 18 28 20 102 16 65 -4 87 -9 101 -24z m-785 0 c33 -32 16 -59 -41 -67 -38 -4 -43 -3 -43 14 0 15 -7 19 -34 19 -33 0 -35 -2 -50 -54 -22 -74 -21 -76 20 -76 30 0 37 4 45 30 10 27 15 30 55 30 48 0 51 -6 34 -56 -15 -43 -45 -57 -140 -64 -139 -12 -149 0 -109 132 27 92 52 108 166 108 61 0 86 -4 97 -16z m900 4 c3 -7 7 -25 10 -40 6 -25 11 -28 46 -28 38 0 39 1 30 26 -17 44 -13 50 30 46 37 -4 40 -7 50 -46 6 -22 22 -74 35 -115 14 -41 24 -75 22 -76 -1 -2 -22 0 -47 4 -42 6 -44 8 -55 51 -8 34 -17 46 -35 51 -45 13 -63 10 -56 -7 3 -9 9 -32 12 -53 l6 -36 -44 3 -44 4 -18 101 c-10 56 -21 108 -23 115 -4 8 7 12 36 12 25 0 43 -5 45 -12z m-879 -238 c19 -31 -67 -80 -106 -59 -22 11 -25 29 -6 29 7 0 28 9 47 19 40 22 56 25 65 11z m987 -7 c18 -16 17 -17 -28 -39 -43 -21 -50 -22 -81 -9 -45 19 -42 35 7 35 22 0 45 6 52 15 17 19 28 19 50 -2z m-189 -29 c17 -4 27 -13 27 -24 0 -13 11 -20 38 -25 33 -6 40 -13 65 -62 15 -31 26 -57 25 -58 -3 -3 -178 24 -193 29 -5 2 10 8 35 12 l45 8 -45 8 c-25 4 -131 11 -237 14 -117 4 -190 11 -186 17 3 5 -2 5 -13 -1 -11 -5 -77 -13 -149 -17 -130 -7 -246 -21 -193 -24 72 -3 57 -16 -37 -32 -55 -9 -101 -16 -103 -14 -1 1 10 27 25 58 25 50 32 57 66 63 27 5 37 12 37 25 0 18 8 20 120 33 55 6 642 -2 673 -10z m-387 -128 c4 -7 -10 -106 -15 -106 -14 0 -134 85 -139 99 -3 10 7 12 46 10 28 -2 48 -1 46 3 -3 4 10 5 28 1 18 -3 33 -6 34 -7z m167 -21 c9 -4 17 -10 17 -14 0 -3 -26 -23 -58 -44 -31 -21 -67 -45 -79 -54 l-23 -15 0 72 0 73 63 -6 c34 -3 70 -9 80 -12z"/> <path d="M1246 1550 c6 -6 28 -13 50 -16 39 -5 39 -5 14 10 -29 18 -80 22 -64 6z"/> <path d="M1186 1358 c-3 -7 -7 -34 -10 -60 l-6 -48 39 0 c35 0 39 3 45 31 3 17 6 44 6 60 0 26 -3 29 -35 29 -20 0 -37 -6 -39 -12z"/> <path d="M1490 1350 c0 -8 -3 -25 -6 -37 -5 -17 -2 -23 10 -23 18 0 22 36 6 60 -9 13 -10 13 -10 0z"/> <path d="M1390 1120 c-8 -5 -23 -7 -32 -4 -12 4 -15 0 -11 -15 4 -16 -2 -23 -23 -32 -23 -10 -25 -13 -11 -16 10 -3 24 1 32 7 10 9 21 7 47 -6 l33 -17 -19 22 c-16 17 -17 25 -8 46 13 28 13 28 -8 15z"/> <path d="M1475 1092 c0 -34 2 -37 27 -37 26 0 28 3 28 40 0 29 -3 36 -12 27 -7 -7 -17 -8 -27 -2 -14 7 -16 2 -16 -28z"/> <path d="M1607 1114 c3 -8 0 -20 -6 -28 -6 -7 -8 -16 -4 -19 10 -11 35 -8 28 2 -3 5 -1 12 4 16 6 3 15 -4 21 -15 15 -28 30 -25 30 5 0 14 -6 25 -12 25 -7 0 -25 6 -40 14 -23 12 -26 12 -21 0z"/> <path d="M1146 1099 c-20 -29 -11 -46 24 -46 16 0 27 4 24 9 -3 4 -12 8 -21 8 -11 0 -14 7 -11 25 6 30 3 31 -16 4z"/> <path d="M1777 1114 c-3 -4 -21 -8 -38 -10 -40 -5 -42 -7 -34 -35 l7 -22 18 23 c16 21 18 22 21 6 3 -13 14 -19 36 -21 18 -2 30 1 27 6 -3 5 -11 9 -19 9 -18 0 -26 25 -12 39 6 6 9 11 6 11 -3 0 -8 -3 -12 -6z"/> <path d="M1212 1094 l-23 -11 22 -6 c14 -4 20 -11 16 -20 -4 -12 0 -13 21 -8 20 5 27 14 27 31 0 27 -26 33 -63 14z"/> <path d="M1427 1104 c-14 -14 -7 -35 11 -32 9 2 17 10 17 17 0 16 -18 25 -28 15z"/> <path d="M1827 1092 c-18 -4 -17 -5 3 -19 12 -9 19 -21 16 -30 -3 -8 -1 -11 4 -8 12 7 14 52 3 58 -5 2 -16 2 -26 -1z"/> </g> </svg>